<svg width="10" height="10" viewBox="0 0 10 10" fill="none" xmlns="http://www.w3.org/2000/svg">
<path d="M5.21152 8.33474L7.63442 9.93409C7.9469 10.139 8.33148 9.83413 8.24014 9.45928L7.53827 6.59045C7.51929 6.51093 7.52231 6.42745 7.54698 6.34964C7.57164 6.27183 7.61695 6.20284 7.67768 6.15063L9.8506 4.2664C10.1342 4.0215 9.99001 3.5267 9.61985 3.50171L6.78352 3.31179C6.70613 3.30711 6.63173 3.27909 6.56941 3.23116C6.50708 3.18323 6.45954 3.11746 6.43259 3.0419L5.37497 0.273026C5.34698 0.19301 5.29598 0.123889 5.22889 0.0750445C5.16181 0.0262004 5.0819 0 5 0C4.9181 0 4.83819 0.0262004 4.77111 0.0750445C4.70402 0.123889 4.65302 0.19301 4.62503 0.273026L3.56741 3.0419C3.54046 3.11746 3.49292 3.18323 3.43059 3.23116C3.36827 3.27909 3.29387 3.30711 3.21648 3.31179L0.380153 3.50171C0.00998814 3.5267 -0.134232 4.0215 0.149401 4.2664L2.32232 6.15063C2.38305 6.20284 2.42836 6.27183 2.45302 6.34964C2.47769 6.42745 2.48071 6.51093 2.46173 6.59045L1.81274 9.24937C1.70217 9.69918 2.16367 10.064 2.53384 9.81913L4.78848 8.33474C4.8517 8.29294 4.92508 8.27074 5 8.27074C5.07492 8.27074 5.1483 8.29294 5.21152 8.33474Z" fill="#757575"/>
</svg>
