<svg width="12" height="12" viewBox="0 0 12 12" fill="none" xmlns="http://www.w3.org/2000/svg">
<g clip-path="url(#clip0_283_435)">
<path d="M4.34547 10.1248H2.25019C2.15074 10.1248 2.05536 10.0853 1.98503 10.015C1.91471 9.94467 1.8752 9.84929 1.8752 9.74983V7.65456C1.87503 7.60587 1.88446 7.55762 1.90296 7.51257C1.92146 7.46753 1.94866 7.42658 1.98301 7.39206L7.60791 1.76717C7.6428 1.73174 7.68439 1.7036 7.73026 1.6844C7.77613 1.66519 7.82536 1.6553 7.87509 1.6553C7.92482 1.6553 7.97405 1.66519 8.01992 1.6844C8.06579 1.7036 8.10738 1.73174 8.14227 1.76717L10.2329 3.85776C10.2683 3.89265 10.2964 3.93424 10.3156 3.98011C10.3348 4.02598 10.3447 4.07521 10.3447 4.12494C10.3447 4.17467 10.3348 4.2239 10.3156 4.26977C10.2964 4.31564 10.2683 4.35723 10.2329 4.39212L4.60796 10.017C4.57345 10.0514 4.53249 10.0786 4.48745 10.0971C4.44241 10.1156 4.39416 10.125 4.34547 10.1248V10.1248Z" stroke="white" stroke-width="0.8" stroke-linecap="round" stroke-linejoin="round"/>
<path d="M6.37441 2.99993L8.99936 5.62488" stroke="white" stroke-width="0.8" stroke-linecap="round" stroke-linejoin="round"/>
</g>
<defs>
<clipPath id="clip0_283_435">
<rect width="11.1111" height="11.1111" fill="white" transform="scale(1.07998)"/>
</clipPath>
</defs>
</svg>
