<svg width="24" height="24" viewBox="0 0 24 24" fill="none" xmlns="http://www.w3.org/2000/svg">
<path opacity="0.4" d="M11.9685 13.1111C15.0669 13.1111 17.5786 10.6238 17.5786 7.55556C17.5786 4.48731 15.0669 2 11.9685 2C8.87013 2 6.3584 4.48731 6.3584 7.55556C6.3584 10.6238 8.87013 13.1111 11.9685 13.1111Z" fill="#A9AFD3"/>
<path d="M20.9346 18.6758C20.9396 18.5967 20.9396 18.5174 20.9346 18.4384C20.9124 18.1461 20.8297 17.8607 20.6911 17.5982C20.1457 16.5297 18.6168 16.0457 17.341 15.7717C16.4308 15.5817 15.506 15.4596 14.5752 15.4064L13.6014 15.3333H13.1631H12.6178H11.3128H10.7674H10.3292L9.35532 15.4064C8.42456 15.4596 7.49975 15.5817 6.58955 15.7717C5.31378 16.0091 3.78481 16.5023 3.23945 17.5982C3.10088 17.8607 3.01819 18.1461 2.99598 18.4384C2.99092 18.5174 2.99092 18.5967 2.99598 18.6758C2.99131 18.7549 2.99131 18.8342 2.99598 18.9132C3.02247 19.203 3.10845 19.4852 3.24919 19.7443C3.79455 20.8128 5.32352 21.2968 6.59928 21.5708C7.51119 21.7519 8.43529 21.8739 9.36506 21.9361L10.3389 22H10.5727H10.7772H13.1729H13.3774H13.6111L14.585 21.9361C15.5147 21.8739 16.4389 21.7519 17.3508 21.5708C18.6265 21.3242 20.1555 20.8402 20.7008 19.7443C20.835 19.477 20.9175 19.1894 20.9443 18.895C20.9456 18.8218 20.9423 18.7486 20.9346 18.6758Z" fill="#283891"/>
</svg>
