<svg width="100" height="100" viewBox="0 0 100 100" fill="none" xmlns="http://www.w3.org/2000/svg">
<g clip-path="url(#clip0_137_255)">
<path d="M50.5 87C71.2107 87 88 70.2107 88 49.5C88 28.7893 71.2107 12 50.5 12C29.7893 12 13 28.7893 13 49.5C13 70.2107 29.7893 87 50.5 87Z" fill="#F54343"/>
<path d="M53.5032 50.4015L62.9638 40.963C63.3781 40.5487 63.6108 39.9868 63.6108 39.4009C63.6108 38.815 63.3781 38.2531 62.9638 37.8388C62.5495 37.4245 61.9876 37.1918 61.4017 37.1918C60.8158 37.1918 60.2539 37.4245 59.8396 37.8388L50.401 47.2994L40.9625 37.8388C40.5482 37.4245 39.9863 37.1918 39.4004 37.1918C38.8145 37.1918 38.2526 37.4245 37.8383 37.8388C37.424 38.2531 37.1913 38.815 37.1913 39.4009C37.1913 39.9868 37.424 40.5487 37.8383 40.963L47.2988 50.4015L37.8383 59.8401C37.6321 60.0446 37.4684 60.288 37.3567 60.5561C37.245 60.8242 37.1875 61.1117 37.1875 61.4022C37.1875 61.6926 37.245 61.9802 37.3567 62.2483C37.4684 62.5164 37.6321 62.7598 37.8383 62.9643C38.0428 63.1705 38.2862 63.3342 38.5543 63.4459C38.8224 63.5576 39.1099 63.6151 39.4004 63.6151C39.6908 63.6151 39.9784 63.5576 40.2465 63.4459C40.5146 63.3342 40.7579 63.1705 40.9625 62.9643L50.401 53.5037L59.8396 62.9643C60.0441 63.1705 60.2874 63.3342 60.5556 63.4459C60.8237 63.5576 61.1112 63.6151 61.4017 63.6151C61.6921 63.6151 61.9797 63.5576 62.2478 63.4459C62.5159 63.3342 62.7592 63.1705 62.9638 62.9643C63.17 62.7598 63.3337 62.5164 63.4454 62.2483C63.5571 61.9802 63.6146 61.6926 63.6146 61.4022C63.6146 61.1117 63.5571 60.8242 63.4454 60.5561C63.3337 60.288 63.17 60.0446 62.9638 59.8401L53.5032 50.4015Z" fill="white" stroke="white" stroke-width="2" stroke-linecap="round" stroke-linejoin="round"/>
</g>
<defs>
<clipPath id="clip0_137_255">
<rect width="100" height="100" fill="white"/>
</clipPath>
</defs>
</svg>
