<svg width="24" height="24" viewBox="0 0 24 24" fill="none" xmlns="http://www.w3.org/2000/svg">
<path opacity="0.4" d="M15.6245 2H19.0015C20.4 2 21.5333 3.14585 21.5333 4.55996V7.97452C21.5333 9.38864 20.4 10.5345 19.0015 10.5345H15.6245C14.226 10.5345 13.0928 9.38864 13.0928 7.97452V4.55996C13.0928 3.14585 14.226 2 15.6245 2Z" fill="#161616"/>
<path d="M4.5264 2H7.90336C9.3019 2 10.4351 3.14585 10.4351 4.55996V7.97452C10.4351 9.38864 9.3019 10.5345 7.90336 10.5345H4.5264C3.12786 10.5345 1.99463 9.38864 1.99463 7.97452V4.55996C1.99463 3.14585 3.12786 2 4.5264 2Z" fill="#161616"/>
<path d="M4.5264 13.4655H7.90336C9.3019 13.4655 10.4351 14.6114 10.4351 16.0255V19.44C10.4351 20.8532 9.3019 22 7.90336 22H4.5264C3.12786 22 1.99463 20.8532 1.99463 19.44V16.0255C1.99463 14.6114 3.12786 13.4655 4.5264 13.4655Z" fill="#161616"/>
<path d="M16.0327 13.4655H19.4097C20.8082 13.4655 21.9415 14.6114 21.9415 16.0255V19.44C21.9415 20.8532 20.8082 22 19.4097 22H16.0327C14.6342 22 13.501 20.8532 13.501 19.44V16.0255C13.501 14.6114 14.6342 13.4655 16.0327 13.4655Z" fill="#161616"/>
</svg>
