<svg width="45" height="45" viewBox="0 0 45 45" fill="none" xmlns="http://www.w3.org/2000/svg">
<rect width="45" height="45" rx="15" fill="#283891"/>
<g clip-path="url(#clip0_283_614)">
<path d="M20.2422 29.875H16.75C16.5842 29.875 16.4253 29.8092 16.3081 29.6919C16.1909 29.5747 16.125 29.4158 16.125 29.25V25.7578C16.1247 25.6767 16.1404 25.5962 16.1713 25.5212C16.2021 25.4461 16.2474 25.3778 16.3047 25.3203L25.6797 15.9453C25.7379 15.8863 25.8072 15.8394 25.8836 15.8073C25.9601 15.7753 26.0421 15.7589 26.125 15.7589C26.2079 15.7589 26.2899 15.7753 26.3664 15.8073C26.4428 15.8394 26.5122 15.8863 26.5703 15.9453L30.0547 19.4297C30.1138 19.4878 30.1607 19.5572 30.1927 19.6336C30.2247 19.7101 30.2412 19.7921 30.2412 19.875C30.2412 19.9579 30.2247 20.0399 30.1927 20.1164C30.1607 20.1928 30.1138 20.2622 30.0547 20.3203L20.6797 29.6953C20.6222 29.7526 20.5539 29.7979 20.4788 29.8287C20.4038 29.8596 20.3234 29.8753 20.2422 29.875V29.875Z" stroke="white" stroke-linecap="round" stroke-linejoin="round"/>
<path d="M23.625 18L28 22.375" stroke="white" stroke-linecap="round" stroke-linejoin="round"/>
</g>
<defs>
<clipPath id="clip0_283_614">
<rect width="20" height="20" fill="white" transform="translate(13 13)"/>
</clipPath>
</defs>
</svg>
