<svg width="35" height="35" viewBox="0 0 35 35" fill="none" xmlns="http://www.w3.org/2000/svg">
<g clip-path="url(#clip0_226_344)">
<path d="M18.1016 26.0722L24.9923 30.4472C25.8809 31.0078 26.9747 30.1738 26.7149 29.1484L24.7188 21.3007C24.6649 21.0832 24.6734 20.8549 24.7436 20.642C24.8137 20.4292 24.9426 20.2404 25.1153 20.0976L31.295 14.9433C32.1016 14.2734 31.6915 12.9199 30.6388 12.8515L22.5723 12.332C22.3523 12.3192 22.1407 12.2426 21.9634 12.1114C21.7862 11.9803 21.651 11.8004 21.5743 11.5937L18.5665 4.0195C18.4869 3.80062 18.3418 3.61154 18.151 3.47793C17.9603 3.34431 17.733 3.27264 17.5001 3.27264C17.2672 3.27264 17.0399 3.34431 16.8491 3.47793C16.6583 3.61154 16.5133 3.80062 16.4337 4.0195L13.4259 11.5937C13.3492 11.8004 13.214 11.9803 13.0368 12.1114C12.8595 12.2426 12.6479 12.3192 12.4278 12.332L4.36141 12.8515C3.30868 12.9199 2.89852 14.2734 3.70516 14.9433L9.88485 20.0976C10.0576 20.2404 10.1864 20.4292 10.2566 20.642C10.3267 20.8549 10.3353 21.0832 10.2813 21.3007L8.43563 28.5742C8.12118 29.8047 9.43368 30.8027 10.4864 30.1328L16.8985 26.0722C17.0783 25.9579 17.287 25.8972 17.5001 25.8972C17.7132 25.8972 17.9218 25.9579 18.1016 26.0722Z" fill="#F5C443"/>
</g>
<defs>
<clipPath id="clip0_226_344">
<rect width="35" height="35" fill="white"/>
</clipPath>
</defs>
</svg>
