<svg width="24" height="24" viewBox="0 0 24 24" fill="none" xmlns="http://www.w3.org/2000/svg">
<g clip-path="url(#clip0_283_646)">
<path d="M12.4123 17.8781L17.1373 20.8781C17.7466 21.2625 18.4966 20.6906 18.3185 19.9875L16.9498 14.6062C16.9127 14.4571 16.9186 14.3005 16.9667 14.1545C17.0148 14.0086 17.1032 13.8792 17.2216 13.7812L21.4591 10.2469C22.0123 9.78749 21.731 8.85937 21.0091 8.81249L15.4779 8.45624C15.327 8.44746 15.1819 8.39491 15.0603 8.305C14.9388 8.2151 14.8461 8.09174 14.7935 7.94999L12.731 2.75624C12.6764 2.60615 12.5769 2.4765 12.4461 2.38488C12.3153 2.29326 12.1595 2.24411 11.9998 2.24411C11.84 2.24411 11.6842 2.29326 11.5534 2.38488C11.4226 2.4765 11.3231 2.60615 11.2685 2.75624L9.206 7.94999C9.15344 8.09174 9.06072 8.2151 8.93918 8.305C8.81764 8.39491 8.67255 8.44746 8.52163 8.45624L2.99038 8.81249C2.2685 8.85937 1.98725 9.78749 2.54038 10.2469L6.77788 13.7812C6.89632 13.8792 6.98468 14.0086 7.03278 14.1545C7.08088 14.3005 7.08676 14.4571 7.04975 14.6062L5.78413 19.5937C5.5685 20.4375 6.4685 21.1219 7.19038 20.6625L11.5873 17.8781C11.7106 17.7997 11.8536 17.7581 11.9998 17.7581C12.1459 17.7581 12.289 17.7997 12.4123 17.8781V17.8781Z" stroke="black" stroke-width="1.5" stroke-linecap="round" stroke-linejoin="round"/>
</g>
<defs>
<clipPath id="clip0_283_646">
<rect width="24" height="24" fill="white"/>
</clipPath>
</defs>
</svg>
