<svg width="91" height="57" viewBox="0 0 91 57" fill="none" xmlns="http://www.w3.org/2000/svg">
<path d="M45.175 57C37.0362 57 29.874 53.9886 24.6652 48.7798C19.4563 53.0934 12.4569 56.2675 8.38753 56.2675C4.72506 56.2675 2.20203 54.6397 0.818427 51.3842C-3.73931 40.0713 11.8872 11.2599 19.3749 4.0977C25.2349 -1.76225 33.2923 -1.02976 37.85 4.34186C40.78 7.92294 43.303 11.2599 45.5005 14.2712C48.1049 10.446 50.8721 6.94628 53.0696 4.34186C57.6274 -1.02976 65.6848 -1.76225 71.5447 4.0977C79.0324 11.2599 94.659 40.0713 90.1012 51.3842C88.8804 54.3956 86.276 56.2675 82.4507 56.2675C78.4627 56.2675 70.975 53.3375 65.8476 48.8612C60.3132 54.1514 53.0696 57 45.175 57ZM28.7346 44.629L28.5718 44.7918C32.7226 48.9426 38.6639 51.3842 45.175 51.3842C51.686 51.3842 57.3832 49.024 61.9409 44.7918C59.4179 41.4549 57.546 37.6296 57.546 33.4788C57.546 22.9798 73.3353 23.3867 73.3353 33.4788C73.3353 37.6296 72.0331 41.1293 69.51 44.629C74.0678 48.5356 80.3347 50.6517 82.4507 50.6517C83.9971 50.6517 84.5668 50.1634 84.8924 49.2681C86.276 45.9312 84.4854 38.1993 80.2533 28.6769C76.5094 20.1312 71.382 11.8296 67.6381 8.08572C64.1384 4.7488 59.9062 4.99297 57.3832 7.92294C55.0229 10.8529 51.686 15.0037 48.8374 19.3173C52.1744 24.7703 53.8021 29.0025 53.8021 32.0952C53.8021 43.7337 37.1175 43.4896 37.1175 32.0952C37.1175 29.0025 38.8267 24.7703 42.1636 19.3173C39.8034 15.8176 37.0362 12.0737 33.5365 7.92294C31.0134 4.99297 26.7813 4.7488 23.2816 8.08572C19.5377 11.8296 14.4102 20.1312 10.6664 28.6769C6.43421 38.1993 4.72506 45.9312 6.02727 49.2681C6.35282 50.1634 6.92254 50.6517 8.46891 50.6517C10.8292 50.6517 16.7705 48.2101 21.2469 44.3848C20.433 43.164 17.6658 39.0946 17.6658 33.4788C17.6658 28.1072 21.491 25.2586 25.1535 25.2586C29.0601 25.2586 33.1295 28.3514 33.1295 33.4788C33.1295 38.4435 30.6065 42.2688 28.7346 44.629ZM65.3592 31.3627C64.464 31.3627 63.1618 31.6069 63.1618 33.4788C63.1618 35.5135 63.9756 37.7924 65.6034 40.3154C66.987 38.118 67.7195 35.8391 67.7195 33.4788C67.7195 31.4441 65.6034 31.3627 65.3592 31.3627ZM25.1535 30.8744C23.6071 30.8744 23.2816 32.258 23.2816 33.4788C23.2816 36.3274 24.2582 38.5249 25.1535 40.0713C26.3743 38.1993 27.5137 36.0832 27.5137 33.4788C27.5137 31.4441 26.0488 30.8744 25.1535 30.8744ZM45.5005 24.6889C43.1403 28.9211 42.7333 31.1186 42.7333 32.0952C42.7333 35.2694 45.9889 35.8391 47.3724 34.4555C47.9422 33.8858 48.1863 33.1533 48.1863 32.0952C48.1863 31.0372 47.7794 28.9211 45.5005 24.6889Z" fill="white"/>
</svg>
