<svg width="24" height="24" viewBox="0 0 24 24" fill="none" xmlns="http://www.w3.org/2000/svg">
<path opacity="0.4" d="M16.1481 2H7.78939C4.75748 2 2.99219 3.78 2.99219 6.83V17.16C2.99219 20.26 4.75748 22 7.78939 22H16.1481C19.2289 22 20.9443 20.26 20.9443 17.16V6.83C20.9443 3.78 19.2289 2 16.1481 2Z" fill="#161616"/>
<path d="M15.8783 12.74H8.05918C7.62932 12.74 7.28125 12.39 7.28125 11.96C7.28125 11.53 7.62932 11.179 8.05918 11.179H15.8783C16.3072 11.179 16.6562 11.53 16.6562 11.96C16.6562 12.39 16.3072 12.74 15.8783 12.74Z" fill="#161616"/>
<path d="M15.8782 17.31H8.05909C7.75989 17.35 7.47066 17.2 7.31109 16.95C7.15151 16.69 7.15151 16.36 7.31109 16.11C7.47066 15.85 7.75989 15.71 8.05909 15.74H15.8782C16.2762 15.78 16.5764 16.12 16.5764 16.53C16.5764 16.929 16.2762 17.27 15.8782 17.31Z" fill="#161616"/>
<path d="M8.05918 6.66V6.65H11.0402C11.4701 6.65 11.8191 7 11.8191 7.429C11.8191 7.87 11.4701 8.22 11.0402 8.22H8.05918C7.62932 8.22 7.28125 7.87 7.28125 7.44C7.28125 7.01 7.62932 6.66 8.05918 6.66Z" fill="#161616"/>
</svg>
