<svg width="16" height="16" viewBox="0 0 16 16" fill="none" xmlns="http://www.w3.org/2000/svg">
<g clip-path="url(#clip0_82_856)">
<path d="M5.79376 13.5H3C2.8674 13.5 2.74022 13.4473 2.64645 13.3536C2.55268 13.2598 2.5 13.1326 2.5 13V10.2063C2.49978 10.1413 2.51236 10.077 2.53702 10.0169C2.56169 9.95688 2.59796 9.90228 2.64375 9.85626L10.1438 2.35626C10.1903 2.30901 10.2457 2.2715 10.3069 2.24589C10.3681 2.22028 10.4337 2.20709 10.5 2.20709C10.5663 2.20709 10.632 2.22028 10.6931 2.24589C10.7543 2.2715 10.8097 2.30901 10.8563 2.35626L13.6438 5.14376C13.691 5.19028 13.7285 5.24574 13.7541 5.3069C13.7797 5.36806 13.7929 5.4337 13.7929 5.50001C13.7929 5.56631 13.7797 5.63196 13.7541 5.69312C13.7285 5.75428 13.691 5.80973 13.6438 5.85626L6.14376 13.3563C6.09773 13.4021 6.04313 13.4383 5.98307 13.463C5.92301 13.4877 5.85868 13.5002 5.79376 13.5V13.5Z" stroke="black" stroke-linecap="round" stroke-linejoin="round"/>
<path d="M8.5 4L12 7.5" stroke="black" stroke-linecap="round" stroke-linejoin="round"/>
</g>
<defs>
<clipPath id="clip0_82_856">
<rect width="16" height="16" fill="white"/>
</clipPath>
</defs>
</svg>
