<svg width="311" height="480" viewBox="0 0 311 480" fill="none" xmlns="http://www.w3.org/2000/svg">
<g filter="url(#filter0_d_105_122)">
<path fill-rule="evenodd" clip-rule="evenodd" d="M0 14C0 6.268 6.26801 0 14 0H297C304.732 0 311 6.26801 311 14V333C297.193 333 286 344.193 286 358C286 371.807 297.193 383 311 383V466C311 473.732 304.732 480 297 480H14C6.26801 480 0 473.732 0 466V383C13.8071 383 25 371.807 25 358C25 344.193 13.8071 333 0 333V14Z" fill="white"/>
</g>
<defs>
<filter id="filter0_d_105_122" x="-50" y="-50" width="411" height="580" filterUnits="userSpaceOnUse" color-interpolation-filters="sRGB">
<feFlood flood-opacity="0" result="BackgroundImageFix"/>
<feColorMatrix in="SourceAlpha" type="matrix" values="0 0 0 0 0 0 0 0 0 0 0 0 0 0 0 0 0 0 127 0" result="hardAlpha"/>
<feOffset/>
<feGaussianBlur stdDeviation="25"/>
<feComposite in2="hardAlpha" operator="out"/>
<feColorMatrix type="matrix" values="0 0 0 0 0 0 0 0 0 0 0 0 0 0 0 0 0 0 0.15 0"/>
<feBlend mode="normal" in2="BackgroundImageFix" result="effect1_dropShadow_105_122"/>
<feBlend mode="normal" in="SourceGraphic" in2="effect1_dropShadow_105_122" result="shape"/>
</filter>
</defs>
</svg>
