<svg width="24" height="24" viewBox="0 0 24 24" fill="none" xmlns="http://www.w3.org/2000/svg">
<path opacity="0.4" d="M16.1481 2H7.78939C4.75748 2 2.99219 3.78 2.99219 6.83V17.16C2.99219 20.26 4.75748 22 7.78939 22H16.1481C19.2289 22 20.9443 20.26 20.9443 17.16V6.83C20.9443 3.78 19.2289 2 16.1481 2Z" fill="#283891"/>
<path fill-rule="evenodd" clip-rule="evenodd" d="M8.05884 6.65V6.66C7.62899 6.66 7.28092 7.01 7.28092 7.44C7.28092 7.87 7.62899 8.22 8.05884 8.22H11.0399C11.4697 8.22 11.8188 7.87 11.8188 7.429C11.8188 7 11.4697 6.65 11.0399 6.65H8.05884ZM15.878 12.74H8.05884C7.62899 12.74 7.28092 12.39 7.28092 11.96C7.28092 11.53 7.62899 11.179 8.05884 11.179H15.878C16.3068 11.179 16.6559 11.53 16.6559 11.96C16.6559 12.39 16.3068 12.74 15.878 12.74ZM15.8778 17.31H8.0586C7.7594 17.35 7.47017 17.2 7.3106 16.95C7.15102 16.69 7.15102 16.36 7.3106 16.11C7.47017 15.85 7.7594 15.71 8.0586 15.74H15.8778C16.2757 15.78 16.5759 16.12 16.5759 16.53C16.5759 16.929 16.2757 17.27 15.8778 17.31Z" fill="#283891"/>
</svg>
