<svg width="28" height="24" viewBox="0 0 28 24" fill="none" xmlns="http://www.w3.org/2000/svg">
<path d="M2.0592 15.6081C2.44608 15.6081 2.63952 15.8153 2.63952 16.2296V17.9529H2.0124V16.1543C2.0124 16.1292 2.00304 16.1072 1.98432 16.0884C1.96872 16.0695 1.94844 16.0601 1.92348 16.0601H1.72224C1.69728 16.0601 1.67544 16.0695 1.65672 16.0884C1.64112 16.1072 1.63332 16.1292 1.63332 16.1543V17.9529H1.0062V16.1543C1.0062 16.1292 0.99684 16.1072 0.97812 16.0884C0.96252 16.0695 0.94224 16.0601 0.91728 16.0601H0.71604C0.69108 16.0601 0.66924 16.0695 0.65052 16.0884C0.63492 16.1072 0.62712 16.1292 0.62712 16.1543V17.9529H0V15.6552H0.57096V15.7729C0.66768 15.663 0.81432 15.6081 1.01088 15.6081H1.053C1.28388 15.6081 1.44456 15.6803 1.53504 15.8247C1.63176 15.6803 1.79244 15.6081 2.01708 15.6081H2.0592Z" fill="black"/>
<path d="M3.7727 16.757V17.9529H3.1175V14.9066H3.7727V16.1825H4.29218V14.9066H4.94738V17.9529H4.29218V16.757H3.7727Z" fill="black"/>
<path d="M7.08245 16.2296V17.3785C7.08245 17.7928 6.88901 18 6.50213 18H5.97329C5.58641 18 5.39297 17.7928 5.39297 17.3785V16.2296C5.39297 15.8153 5.58641 15.6081 5.97329 15.6081H6.50213C6.88901 15.6081 7.08245 15.8153 7.08245 16.2296ZM6.45533 17.5103V16.0931C6.45533 16.068 6.44597 16.046 6.42725 16.0272C6.41165 16.0083 6.39137 15.9989 6.36641 15.9989H6.10901C6.08405 15.9989 6.06221 16.0083 6.04349 16.0272C6.02789 16.046 6.02009 16.068 6.02009 16.0931V17.5103C6.02009 17.5354 6.02789 17.5574 6.04349 17.5762C6.06221 17.5951 6.08405 17.6045 6.10901 17.6045H6.36641C6.39137 17.6045 6.41165 17.5951 6.42725 17.5762C6.44597 17.5574 6.45533 17.5354 6.45533 17.5103Z" fill="black"/>
<path d="M9.56822 15.6081C9.9551 15.6081 10.1485 15.8153 10.1485 16.2296V17.9529H9.52142V16.1543C9.52142 16.1292 9.51206 16.1072 9.49334 16.0884C9.47774 16.0695 9.45746 16.0601 9.4325 16.0601H9.23126C9.2063 16.0601 9.18446 16.0695 9.16574 16.0884C9.15014 16.1072 9.14234 16.1292 9.14234 16.1543V17.9529H8.51522V16.1543C8.51522 16.1292 8.50586 16.1072 8.48714 16.0884C8.47154 16.0695 8.45126 16.0601 8.4263 16.0601H8.22506C8.2001 16.0601 8.17826 16.0695 8.15954 16.0884C8.14394 16.1072 8.13614 16.1292 8.13614 16.1543V17.9529H7.50902V15.6552H8.07998V15.7729C8.1767 15.663 8.32334 15.6081 8.5199 15.6081H8.56202C8.7929 15.6081 8.95358 15.6803 9.04406 15.8247C9.14078 15.6803 9.30146 15.6081 9.5261 15.6081H9.56822Z" fill="black"/>
<path d="M11.7123 15.6081C12.0992 15.6081 12.2926 15.8153 12.2926 16.2296V16.9736H11.2302V17.4538C11.2302 17.4789 11.238 17.5009 11.2536 17.5197C11.2724 17.5386 11.2942 17.548 11.3192 17.548H11.5766C11.6015 17.548 11.6218 17.5386 11.6374 17.5197C11.6561 17.5009 11.6655 17.4789 11.6655 17.4538V17.1996H12.2926V17.3785C12.2926 17.7928 12.0992 18 11.7123 18H11.1834C10.7966 18 10.6031 17.7928 10.6031 17.3785V16.2296C10.6031 15.8153 10.7966 15.6081 11.1834 15.6081H11.7123ZM11.2302 16.5592H11.6655V16.1355C11.6655 16.1103 11.6561 16.0884 11.6374 16.0695C11.6218 16.0507 11.6015 16.0413 11.5766 16.0413H11.3192C11.2942 16.0413 11.2724 16.0507 11.2536 16.0695C11.238 16.0884 11.2302 16.1103 11.2302 16.1355V16.5592Z" fill="black"/>
<path d="M15.2865 15.707H14.664V15.4669C14.664 15.4417 14.6547 15.4198 14.636 15.4009C14.6204 15.3821 14.6001 15.3727 14.5751 15.3727H14.3177C14.2928 15.3727 14.2709 15.3821 14.2522 15.4009C14.2366 15.4198 14.2288 15.4417 14.2288 15.4669V16.0083C14.2288 16.0334 14.2366 16.0554 14.2522 16.0742C14.2709 16.0931 14.2928 16.1025 14.3177 16.1025H14.7389C15.1258 16.1088 15.3192 16.3159 15.3192 16.724V17.3785C15.3192 17.7928 15.1258 18 14.7389 18H14.1867C13.7998 18 13.6064 17.7928 13.6064 17.3785V17.063H14.2288V17.402C14.2288 17.4271 14.2366 17.4491 14.2522 17.4679C14.2709 17.4868 14.2928 17.4962 14.3177 17.4962H14.6079C14.6328 17.4962 14.6531 17.4868 14.6687 17.4679C14.6874 17.4491 14.6968 17.4271 14.6968 17.402V16.8041C14.6968 16.7789 14.6874 16.757 14.6687 16.7381C14.6531 16.7193 14.6328 16.7099 14.6079 16.7099H14.1867C13.7998 16.7099 13.6064 16.5027 13.6064 16.0884V15.481C13.6064 15.0666 13.7998 14.8595 14.1867 14.8595H14.7062C15.093 14.8595 15.2865 15.0666 15.2865 15.481V15.707Z" fill="black"/>
<path d="M16.8356 15.6081C17.2225 15.6081 17.4159 15.8153 17.4159 16.2296V16.9736H16.3536V17.4538C16.3536 17.4789 16.3614 17.5009 16.377 17.5197C16.3957 17.5386 16.4175 17.548 16.4425 17.548H16.6999C16.7248 17.548 16.7451 17.5386 16.7607 17.5197C16.7794 17.5009 16.7888 17.4789 16.7888 17.4538V17.1996H17.4159V17.3785C17.4159 17.7928 17.2225 18 16.8356 18H16.3068C15.9199 18 15.7264 17.7928 15.7264 17.3785V16.2296C15.7264 15.8153 15.9199 15.6081 16.3068 15.6081H16.8356ZM16.3536 16.5592H16.7888V16.1355C16.7888 16.1103 16.7794 16.0884 16.7607 16.0695C16.7451 16.0507 16.7248 16.0413 16.6999 16.0413H16.4425C16.4175 16.0413 16.3957 16.0507 16.377 16.0695C16.3614 16.0884 16.3536 16.1103 16.3536 16.1355V16.5592Z" fill="black"/>
<path d="M18.7337 15.6081H18.8554V16.2202H18.5465C18.4404 16.2202 18.3874 16.2751 18.3874 16.385V17.9529H17.7602V15.6552H18.3312V15.8765C18.4217 15.6976 18.5558 15.6081 18.7337 15.6081Z" fill="black"/>
<path d="M20.1889 15.6552H20.7973L20.2965 17.9529H19.4682L18.9674 15.6552H19.5758L19.8847 17.4397L20.1889 15.6552Z" fill="black"/>
<path d="M21.7056 15.368C21.6401 15.4339 21.5605 15.4669 21.4669 15.4669C21.3733 15.4669 21.2922 15.4339 21.2236 15.368C21.1549 15.2989 21.1206 15.2173 21.1206 15.1231C21.1206 15.0258 21.1549 14.9442 21.2236 14.8783C21.2922 14.8092 21.3733 14.7747 21.4669 14.7747C21.5605 14.7747 21.6401 14.8092 21.7056 14.8783C21.7743 14.9442 21.8086 15.0258 21.8086 15.1231C21.8086 15.2204 21.7743 15.3021 21.7056 15.368ZM21.1534 17.9529V15.6552H21.7805V17.9529H21.1534Z" fill="black"/>
<path d="M23.9103 16.5592H23.2832V16.1543C23.2832 16.1292 23.2739 16.1072 23.2551 16.0884C23.2395 16.0695 23.2193 16.0601 23.1943 16.0601H22.9369C22.9119 16.0601 22.8901 16.0695 22.8714 16.0884C22.8558 16.1072 22.848 16.1292 22.848 16.1543V17.4538C22.848 17.4789 22.8558 17.5009 22.8714 17.5197C22.8901 17.5386 22.9119 17.548 22.9369 17.548H23.1943C23.2193 17.548 23.2395 17.5386 23.2551 17.5197C23.2739 17.5009 23.2832 17.4789 23.2832 17.4538V17.0489H23.9103V17.3785C23.9103 17.7928 23.7169 18 23.33 18H22.8012C22.4143 18 22.2209 17.7928 22.2209 17.3785V16.2296C22.2209 15.8153 22.4143 15.6081 22.8012 15.6081H23.33C23.7169 15.6081 23.9103 15.8153 23.9103 16.2296V16.5592Z" fill="black"/>
<path d="M25.4187 15.6081C25.8055 15.6081 25.999 15.8153 25.999 16.2296V16.9736H24.9366V17.4538C24.9366 17.4789 24.9444 17.5009 24.96 17.5197C24.9787 17.5386 25.0006 17.548 25.0255 17.548H25.2829C25.3079 17.548 25.3282 17.5386 25.3438 17.5197C25.3625 17.5009 25.3719 17.4789 25.3719 17.4538V17.1996H25.999V17.3785C25.999 17.7928 25.8055 18 25.4187 18H24.8898C24.5029 18 24.3095 17.7928 24.3095 17.3785V16.2296C24.3095 15.8153 24.5029 15.6081 24.8898 15.6081H25.4187ZM24.9366 16.5592H25.3719V16.1355C25.3719 16.1103 25.3625 16.0884 25.3438 16.0695C25.3282 16.0507 25.3079 16.0413 25.2829 16.0413H25.0255C25.0006 16.0413 24.9787 16.0507 24.96 16.0695C24.9444 16.0884 24.9366 16.1103 24.9366 16.1355V16.5592Z" fill="black"/>
<path d="M27.4197 16.5121C27.8066 16.5121 28 16.7193 28 17.1336V17.3785C28 17.7928 27.8066 18 27.4197 18H26.9002C26.5133 18 26.3199 17.7928 26.3199 17.3785V17.2325H26.9002V17.4397C26.9002 17.4648 26.908 17.4868 26.9236 17.5056C26.9423 17.5244 26.9642 17.5339 26.9891 17.5339H27.3729C27.3978 17.5339 27.4181 17.5244 27.4337 17.5056C27.4524 17.4868 27.4618 17.4648 27.4618 17.4397V17.1572C27.4618 17.1321 27.4524 17.1101 27.4337 17.0913C27.4181 17.0724 27.3978 17.063 27.3729 17.063H26.8908C26.504 17.063 26.3105 16.8558 26.3105 16.4415V16.2296C26.3105 15.8153 26.504 15.6081 26.8908 15.6081H27.3822C27.7691 15.6081 27.9626 15.8153 27.9626 16.2296V16.3144H27.3822V16.1684C27.3822 16.1433 27.3729 16.1213 27.3542 16.1025C27.3386 16.0837 27.3183 16.0742 27.2933 16.0742H26.9376C26.9127 16.0742 26.8908 16.0837 26.8721 16.1025C26.8565 16.1213 26.8487 16.1433 26.8487 16.1684V16.418C26.8487 16.4431 26.8565 16.465 26.8721 16.4839C26.8908 16.5027 26.9127 16.5121 26.9376 16.5121H27.4197Z" fill="black"/>
<path d="M13.9068 12.029C12.9092 12.029 12.0314 11.6576 11.3929 11.0153C10.7545 11.5472 9.89653 11.9387 9.39774 11.9387C8.94883 11.9387 8.63958 11.7379 8.46999 11.3365C7.91135 9.94141 9.8267 6.38852 10.7445 5.50531C11.4627 4.78269 12.4503 4.87302 13.009 5.53542C13.3681 5.97702 13.6774 6.38852 13.9467 6.75986C14.2659 6.28815 14.6051 5.85658 14.8745 5.53542C15.4331 4.87302 16.4207 4.78269 17.139 5.50531C18.0567 6.38852 19.9721 9.94141 19.4134 11.3365C19.2638 11.7078 18.9446 11.9387 18.4757 11.9387C17.9869 11.9387 17.0691 11.5773 16.4406 11.0253C15.7623 11.6777 14.8745 12.029 13.9068 12.029ZM11.8917 10.5034L11.8717 10.5235C12.3805 11.0354 13.1087 11.3365 13.9068 11.3365C14.7049 11.3365 15.4032 11.0454 15.9618 10.5235C15.6526 10.112 15.4231 9.64032 15.4231 9.12846C15.4231 7.83376 17.3584 7.88394 17.3584 9.12846C17.3584 9.64032 17.1988 10.0719 16.8896 10.5034C17.4482 10.9852 18.2163 11.2461 18.4757 11.2461C18.6653 11.2461 18.7351 11.1859 18.775 11.0755C18.9446 10.664 18.7251 9.71057 18.2064 8.53631C17.7475 7.48249 17.119 6.45877 16.6601 5.99709C16.2312 5.5856 15.7124 5.61571 15.4032 5.97702C15.1139 6.33833 14.7049 6.85019 14.3557 7.38212C14.7647 8.05456 14.9642 8.57646 14.9642 8.95784C14.9642 10.393 12.9192 10.3629 12.9192 8.95784C12.9192 8.57646 13.1287 8.05456 13.5377 7.38212C13.2484 6.95056 12.9092 6.48888 12.4803 5.97702C12.171 5.61571 11.6523 5.5856 11.2233 5.99709C10.7644 6.45877 10.136 7.48249 9.67707 8.53631C9.15833 9.71057 8.94883 10.664 9.10845 11.0755C9.14835 11.1859 9.21818 11.2461 9.40772 11.2461C9.69702 11.2461 10.4253 10.9451 10.9739 10.4733C10.8742 10.3228 10.535 9.82097 10.535 9.12846C10.535 8.46605 11.0038 8.11478 11.4528 8.11478C11.9316 8.11478 12.4304 8.49616 12.4304 9.12846C12.4304 9.74068 12.1211 10.2124 11.8917 10.5034ZM16.3808 8.86751C16.2711 8.86751 16.1114 8.89762 16.1114 9.12846C16.1114 9.37937 16.2112 9.66039 16.4107 9.97152C16.5803 9.70054 16.6701 9.41952 16.6701 9.12846C16.6701 8.87755 16.4107 8.86751 16.3808 8.86751ZM11.4528 8.80729C11.2632 8.80729 11.2233 8.97791 11.2233 9.12846C11.2233 9.47973 11.343 9.75072 11.4528 9.94141C11.6024 9.71057 11.7421 9.44962 11.7421 9.12846C11.7421 8.87755 11.5625 8.80729 11.4528 8.80729ZM13.9467 8.04453C13.6574 8.56642 13.6075 8.8374 13.6075 8.95784C13.6075 9.34926 14.0066 9.41952 14.1761 9.2489C14.246 9.17864 14.2759 9.08831 14.2759 8.95784C14.2759 8.82737 14.226 8.56642 13.9467 8.04453Z" fill="black"/>
</svg>
