<svg width="24" height="24" viewBox="0 0 24 24" fill="none" xmlns="http://www.w3.org/2000/svg">
<g clip-path="url(#clip0_1_412)">
<path d="M21.3844 11.3625L7.89375 3.11253C7.78018 3.04248 7.64998 3.00399 7.51658 3.00104C7.38318 2.99809 7.25141 3.03078 7.13486 3.09574C7.0183 3.16071 6.92119 3.25559 6.85354 3.3706C6.78589 3.48562 6.75015 3.61659 6.75 3.75003V20.25C6.75015 20.3835 6.78589 20.5144 6.85354 20.6295C6.92119 20.7445 7.0183 20.8394 7.13486 20.9043C7.25141 20.9693 7.38318 21.002 7.51658 20.999C7.64998 20.9961 7.78018 20.9576 7.89375 20.8875L21.3844 12.6375C21.4952 12.572 21.5869 12.4788 21.6507 12.367C21.7145 12.2552 21.748 12.1287 21.748 12C21.748 11.8713 21.7145 11.7449 21.6507 11.6331C21.5869 11.5213 21.4952 11.428 21.3844 11.3625Z" fill="#757575"/>
</g>
<defs>
<clipPath id="clip0_1_412">
<rect width="24" height="24" fill="white"/>
</clipPath>
</defs>
</svg>
