<svg width="24" height="25" viewBox="0 0 24 25" fill="none" xmlns="http://www.w3.org/2000/svg">
<path d="M11.8957 20.846C11.7449 20.7495 11.5567 20.7258 11.3856 20.7817C11.0746 20.8803 10.742 20.8956 10.4229 20.8256V21.2996C10.4229 23.0729 11.0536 24.0004 11.2708 24.0004C11.4883 24.0006 12.1039 23.0729 12.1039 21.2996C12.1123 21.1906 12.1123 21.0809 12.1039 20.972L11.8957 20.846Z" fill="#161616"/>
<path d="M11.2615 16.9773C10.7044 16.9778 10.1497 16.909 9.61072 16.7726V16.9159C9.58925 17.8317 9.82504 18.736 10.2928 19.532L10.6128 19.6577H10.6126C10.7431 19.7045 10.8865 19.7045 11.017 19.6577C11.496 19.5026 12.0202 19.5516 12.4598 19.7922C12.7823 19.0797 12.9438 18.3085 12.9337 17.5305C12.9328 17.2772 12.9166 17.0241 12.8853 16.7726C12.355 16.9055 11.8095 16.9743 11.2615 16.9773L11.2615 16.9773Z" fill="#161616"/>
<path opacity="0.4" d="M15.8674 3.47625C15.6371 3.38787 15.4857 3.17213 15.4857 2.93188C15.4857 2.69184 15.6371 2.47589 15.8674 2.38772C15.9025 2.37384 15.9366 2.35833 15.9701 2.34098C14.763 0.901361 13.0998 0 11.2619 0C7.60084 0 4.62207 3.54358 4.62207 7.90063C4.62207 12.2576 7.601 15.8013 11.2619 15.8013C14.923 15.8013 17.9017 12.2577 17.9017 7.90063C17.9074 6.60126 17.6321 5.31532 17.0929 4.12578C16.7131 3.86207 16.3014 3.64384 15.8674 3.47625ZM7.84836 7.07846C7.7351 6.96864 7.67152 6.81965 7.67152 6.66431C7.67152 6.50898 7.7351 6.35998 7.84836 6.25017L9.55365 4.59684C9.66439 4.47784 9.8206 4.40844 9.98586 4.40415C10.1509 4.39987 10.3107 4.46151 10.4278 4.57459C10.5448 4.68767 10.609 4.84238 10.6052 5.00261C10.6014 5.16264 10.5301 5.31429 10.4078 5.42206L8.69956 7.07821C8.46419 7.30498 8.08394 7.30523 7.84836 7.07846ZM9.55365 10.3908C9.44059 10.4996 9.28754 10.5606 9.12818 10.5604C8.88418 10.5606 8.96465 10.3558 8.87095 10.1374C8.77705 9.91923 8.828 9.66756 9 9.5L12.9703 5.42213C13.206 5.19352 13.5884 5.19352 13.8244 5.42213C14.0602 5.65094 14.0602 6.02162 13.8244 6.25023L9.55365 10.3908ZM14.6844 9.56272L12.9791 11.216C12.8656 11.3267 12.7115 11.3887 12.5507 11.3885C12.3035 11.3961 12.0766 11.2567 11.978 11.0366C11.8795 10.8166 11.9294 10.5606 12.1039 10.3908L13.8121 8.73469C14.0511 8.52547 14.4172 8.53486 14.6443 8.75591C14.8715 8.97697 14.8799 9.3319 14.6633 9.56275L14.6844 9.56272Z" fill="#161616"/>
<path d="M22.0002 2.93178C22.0002 4.15685 20.9759 5.14986 19.7124 5.14986C18.449 5.14986 17.4248 4.15685 17.4248 2.93178C17.4248 1.70692 18.449 0.713905 19.7124 0.713905C20.9759 0.713905 22.0002 1.70692 22.0002 2.93178Z" fill="#161616"/>
<path d="M2.20714 14.3438C2.20714 14.6669 1.93703 14.929 1.60357 14.929C1.2703 14.929 1 14.6669 1 14.3438C1 14.0205 1.27031 13.7586 1.60357 13.7586C1.93704 13.7586 2.20714 14.0205 2.20714 14.3438Z" fill="#161616"/>
<path d="M5.2252 17.27C5.2252 17.5931 4.9551 17.8551 4.62163 17.8551C4.28837 17.8551 4.01807 17.5931 4.01807 17.27C4.01807 16.9466 4.28838 16.6848 4.62163 16.6848C4.95511 16.6848 5.2252 16.9467 5.2252 17.27Z" fill="#161616"/>
<path d="M8 7.00098L10 5.00098" stroke="#161616" stroke-width="1.3" stroke-linecap="round"/>
<path d="M12.5 10.9L14.5 8.9" stroke="#161616" stroke-width="1.3" stroke-linecap="round"/>
<path d="M9.2002 10L13.7002 5.5" stroke="#161616" stroke-width="1.3" stroke-linecap="round"/>
</svg>
